<?xml version="1.0" encoding="utf-8"?>
<!-- Generator: Adobe Illustrator 16.0.3, SVG Export Plug-In . SVG Version: 6.00 Build 0)  -->
<svg version="1.2" baseProfile="tiny" xmlns="http://www.w3.org/2000/svg" xmlns:xlink="http://www.w3.org/1999/xlink" x="0px"
	 y="0px" width="50px" height="50px" viewBox="0 0 50 50" xml:space="preserve">
<g id="Ebene_1" display="none">
	<path display="inline" fill="#3C3C3C" d="M0.706,24.02L19.338,4.854c0,0,2.218-2.341,2.218,0.198c0,2.54,0,8.691,0,8.691
		s1.492,0,3.786,0c6.564,0,18.483,0,23.34,0c0,0,1.318-0.345,1.318,1.658c0,2.002,0,18.267,0,19.703c0,1.438-1.1,1.395-1.1,1.395
		c-4.731,0-17.063,0-23.39,0c-2.069,0-3.412,0-3.412,0s0,4.931,0,8.029c0,3.087-2.301,0.758-2.301,0.758S2.375,28.42,0.559,26.608
		C-0.779,25.27,0.706,24.02,0.706,24.02z"/>
</g>
<g id="Ebene_2">
	<path fill="#3C3C3C" d="M42.404,39.097L25.59,10.216c-0.122-0.209-0.346-0.337-0.591-0.337c-0.239,0-0.463,0.128-0.582,0.337
		L7.595,39.097c-0.123,0.212-0.128,0.471-0.007,0.684c0.124,0.211,0.347,0.341,0.591,0.341h33.641c0.243,0,0.471-0.13,0.591-0.341
		c0.057-0.106,0.09-0.224,0.09-0.34C42.5,39.32,42.467,39.202,42.404,39.097z M27.298,20.128l-0.559,11.481H23.85l-0.558-11.481
		H27.298z M25.293,37.488h-0.051c-1.317,0-2.229-0.987-2.229-2.307c0-1.368,0.937-2.306,2.28-2.306c1.342,0,2.232,0.938,2.258,2.306
		C27.552,36.501,26.663,37.488,25.293,37.488z"/>
</g>
</svg>
