<?xml version="1.0" encoding="utf-8"?>
<!-- Generator: Adobe Illustrator 16.0.3, SVG Export Plug-In . SVG Version: 6.00 Build 0)  -->
<svg version="1.2" baseProfile="tiny" xmlns="http://www.w3.org/2000/svg" xmlns:xlink="http://www.w3.org/1999/xlink" x="0px"
	 y="0px" width="50px" height="50px" viewBox="0 0 50 50" xml:space="preserve">
<g id="Ebene_1" display="none">
	<path display="inline" fill="#3C3C3C" d="M0.706,24.02L19.338,4.854c0,0,2.218-2.341,2.218,0.198c0,2.54,0,8.691,0,8.691
		s1.492,0,3.786,0c6.564,0,18.483,0,23.34,0c0,0,1.318-0.345,1.318,1.658c0,2.002,0,18.267,0,19.703c0,1.438-1.1,1.395-1.1,1.395
		c-4.731,0-17.063,0-23.39,0c-2.069,0-3.412,0-3.412,0s0,4.931,0,8.029c0,3.087-2.301,0.758-2.301,0.758S2.375,28.42,0.559,26.608
		C-0.779,25.27,0.706,24.02,0.706,24.02z"/>
</g>
<g id="Ebene_2">
	<g id="_x3C_Group_x3E__15_">
		<path fill="#3C3C3C" d="M37.691,21.07l-0.885-2.099c0,0,2.053-4.641,1.873-4.815l-2.725-2.659
			c-0.185-0.183-4.822,1.936-4.822,1.936l-2.144-0.866c0,0-1.888-4.7-2.149-4.7H23c-0.272,0-2.017,4.711-2.017,4.711l-2.138,0.867
			c0,0-4.735-2.013-4.92-1.834l-2.717,2.662c-0.186,0.183,1.979,4.726,1.979,4.726l-0.886,2.096c0,0-4.802,1.848-4.802,2.101v3.761
			c0,0.265,4.811,1.979,4.811,1.979l0.884,2.091c0,0-2.055,4.637-1.875,4.815l2.725,2.662c0.18,0.178,4.82-1.939,4.82-1.939
			l2.146,0.869c0,0,1.887,4.698,2.153,4.698H27c0.271,0,2.016-4.712,2.016-4.712l2.15-0.867c0,0,4.722,2.013,4.908,1.838
			l2.717-2.662c0.194-0.187-1.979-4.726-1.979-4.726l0.886-2.099c0,0,4.803-1.851,4.803-2.103V23.04
			C42.5,22.78,37.691,21.07,37.691,21.07z M30.612,24.999c0,3.028-2.519,5.492-5.61,5.492c-3.095,0-5.611-2.464-5.611-5.492
			c0-3.027,2.516-5.487,5.611-5.487C28.094,19.511,30.612,21.971,30.612,24.999z"/>
	</g>
</g>
</svg>
